<svg width="135" height="29" viewBox="0 0 135 29" fill="none" xmlns="http://www.w3.org/2000/svg">
<g id="Group 27340">
<g id="Group">
<path id="Vector" d="M13.5044 14.0952L26.1052 0.594238H19.4042L6.02155 14.6517V0.594238H0V28.5476H6.02155V21.957L9.53935 18.3061L17.919 28.5476H24.9899L14.3568 15.1684L13.5044 14.0941V14.0952Z" fill="white"/>
<path id="Vector_2" d="M45.524 13.0175C43.6507 10.046 40.2137 8.20801 36.0233 8.20801C31.545 8.20801 27.9089 10.3089 26.1357 13.6378C25.3698 15.0638 24.9521 16.7197 24.9521 18.5281C24.9521 24.5621 29.6251 28.8481 36.0233 28.8481C42.4216 28.8481 47.0593 24.5621 47.0593 18.5281C47.0593 16.4488 46.5073 14.5755 45.524 13.0175ZM36.0233 24.0785C33.1053 24.0785 30.8599 21.9924 30.8599 18.5281C30.8599 15.5486 32.5169 13.5888 34.8375 13.0995C35.2164 13.0164 35.6136 12.9754 36.0233 12.9754C36.3113 12.9754 36.5878 12.9936 36.8598 13.038C39.3511 13.3976 41.1481 15.4018 41.1481 18.5281C41.1481 21.9924 38.9425 24.0785 36.0245 24.0785H36.0233Z" fill="white"/>
<path id="Vector_3" d="M56.7841 8.50598H50.9492V28.5486H56.7841V8.50598Z" fill="white"/>
<path id="Vector_4" d="M74.443 8.20801C71.7116 8.20801 69.3546 9.14123 67.7841 10.8529V8.50618H62.2109V28.5488H68.0447V18.6385C68.0447 17.1817 68.3588 16.0334 68.9176 15.181C69.7643 13.8665 71.1755 13.2394 72.8724 13.2394C75.1656 13.2394 76.6019 14.4151 76.8932 16.9473C76.9308 17.2637 76.949 17.6074 76.949 17.9693V28.5477H80.1629L82.7873 24.9036V17.077C82.7873 10.9644 79.1944 8.20801 74.443 8.20801Z" fill="white"/>
</g>
<g id="Group_2">
<path id="Vector_5" d="M113.118 0.498657L84.4922 28.5488H93.4022L96.0175 24.8307L110.83 3.75583L113.118 0.498657Z" fill="white"/>
<path id="Vector_6" d="M104.681 0.498657L103.765 1.77103L89.3996 21.7283L84.4922 28.5488L113.118 0.498657H104.681Z" fill="white"/>
<path id="Vector_7" d="M110.284 23.6504L109.915 23.1269C109.606 22.6899 109.104 22.4304 108.572 22.4304H101.838C101.588 22.4304 101.395 22.5784 101.303 22.7753L113.75 28.5487L110.284 23.6504Z" fill="white"/>
<path id="Vector_8" d="M101.303 22.7755C101.221 22.9508 101.22 23.1647 101.342 23.3514L102.724 25.4557H102.728L104.761 28.549H113.751L101.304 22.7755H101.303Z" fill="white"/>
<path id="Vector_9" d="M97.2558 5.69064L95.1242 2.56093L93.7199 0.499878H84.9248L97.1181 6.49867C97.3571 6.31999 97.447 5.97174 97.257 5.69064H97.2558Z" fill="white"/>
<path id="Vector_10" d="M84.9238 0.498694L88.6761 5.90797C88.692 5.92959 88.7068 5.9478 88.7227 5.96942C89.0334 6.37572 89.5148 6.61585 90.0292 6.61585H96.7666C96.9043 6.61585 97.0216 6.56805 97.1183 6.49635L84.925 0.497559L84.9238 0.498694Z" fill="white"/>
</g>
<path id="Vector_11" d="M125.491 1.57007H123.122V7.78396H121.521V1.57007H119.184V0.386475H125.491V1.57007ZM128.483 0.386475L130.472 5.72911L132.453 0.386475H134.548V7.78396H132.93V5.72911L133.108 2.22763L131.014 7.78396H129.922L127.836 2.23585L127.998 5.72911V7.78396H126.405V0.386475H128.483Z" fill="white"/>
</g>
</svg>
